HIERARCHY
ROOT Hips
{
 OFFSET 0.000000 0.000000 0.000000
 CHANNELS 6 Xposition Yposition Zposition Yrotation Xrotation Zrotation
 JOINT Chest
 {
  OFFSET 0.000000 10.080317 -0.001081
  CHANNELS 3 Yrotation Xrotation Zrotation
  JOINT Chest2
  {
   OFFSET 0.000000 11.096852 0.001963
   CHANNELS 3 Yrotation Xrotation Zrotation
   JOINT Chest3
   {
    OFFSET 0.000000 10.026525 0.000000
    CHANNELS 3 Yrotation Xrotation Zrotation
    JOINT Chest4
    {
     OFFSET 0.000000 10.026525 0.000000
     CHANNELS 3 Yrotation Xrotation Zrotation
     JOINT Neck
     {
      OFFSET 0.000000 14.108171 0.000000
      CHANNELS 3 Yrotation Xrotation Zrotation
      JOINT Head
      {
       OFFSET 0.000000 9.333493 0.004668
       CHANNELS 3 Yrotation Xrotation Zrotation
       End Site
       {
        OFFSET 0.000000 17.851786 0.002438
       }
      }
     }
     JOINT RightCollar
     {
      OFFSET -3.071622 7.873185 0.000000
      CHANNELS 3 Yrotation Xrotation Zrotation
      JOINT RightShoulder
      {
       OFFSET -14.378659 0.000000 0.000000
       CHANNELS 3 Yrotation Xrotation Zrotation
       JOINT RightElbow
       {
        OFFSET -30.778728 0.000000 0.000000
        CHANNELS 3 Yrotation Xrotation Zrotation
        JOINT RightWrist
        {
         OFFSET -25.164217 0.000000 0.000000
         CHANNELS 3 Yrotation Xrotation Zrotation
         End Site
         {
          OFFSET -18.796788 0.000000 0.000000
         }
        }
       }
      }
     }
     JOINT LeftCollar
     {
      OFFSET 3.071622 7.873185 0.000000
      CHANNELS 3 Yrotation Xrotation Zrotation
      JOINT LeftShoulder
      {
       OFFSET 14.378659 0.000000 0.000000
       CHANNELS 3 Yrotation Xrotation Zrotation
       JOINT LeftElbow
       {
        OFFSET 30.778728 0.000000 0.000000
        CHANNELS 3 Yrotation Xrotation Zrotation
        JOINT LeftWrist
        {
         OFFSET 25.164217 0.000000 0.000000
         CHANNELS 3 Yrotation Xrotation Zrotation
         End Site
         {
          OFFSET 18.796788 0.000000 0.000000
         }
        }
       }
      }
     }
    }
   }
  }
 }
 JOINT RightHip
 {
  OFFSET -8.194923 0.005295 0.000540
  CHANNELS 3 Yrotation Xrotation Zrotation
  JOINT RightKnee
  {
   OFFSET 0.000000 -42.473320 -0.000511
   CHANNELS 3 Yrotation Xrotation Zrotation
   JOINT RightAnkle
   {
    OFFSET 0.000000 -41.474259 -0.000865
    CHANNELS 3 Yrotation Xrotation Zrotation
    JOINT RightToe
    {
     OFFSET 0.000000 -7.354994 16.712725
     CHANNELS 3 Yrotation Xrotation Zrotation
     End Site
     {
      OFFSET 0.000000 -1.553903 6.764158
     }
    }
   }
  }
 }
 JOINT LeftHip
 {
  OFFSET 8.194923 0.005295 0.000540
  CHANNELS 3 Yrotation Xrotation Zrotation
  JOINT LeftKnee
  {
   OFFSET 0.000000 -42.473320 -0.000511
   CHANNELS 3 Yrotation Xrotation Zrotation
   JOINT LeftAnkle
   {
    OFFSET 0.000000 -41.474259 -0.000865
    CHANNELS 3 Yrotation Xrotation Zrotation
    JOINT LeftToe
    {
     OFFSET 0.000000 -7.354994 16.712725
     CHANNELS 3 Yrotation Xrotation Zrotation
     End Site
     {
      OFFSET 0.000000 -1.553903 6.764158
     }
    }
   }
  }
 }
}
MOTION
Frames: 9
Frame Time: 0.016667
-12.362284 84.930384 127.078637 31.708011 -11.349010 7.449026 0.124184 3.284287 11.047650 -0.607364 1.463089 4.483963 -0.607364 1.463089 4.483963 -0.466265 1.092932 3.364247 -3.889298 19.389394 -5.067707 -5.513968 -0.241301 -8.039314 1.825635 5.577707 10.529853 -21.228801 -33.071329 51.058055 60.406590 -53.474078 40.903886 1.475147 -14.389929 16.657115 -17.349303 -14.353768 -4.249232 -32.303913 -55.827355 -57.434554 -107.062647 -10.964745 -37.419008 3.047467 12.587612 14.273723 3.687297 -21.166916 -18.973247 -1.369210 29.854231 -4.116773 -5.937034 2.865841 9.902924 -0.967049 -0.338829 2.111824 6.574451 1.105076 2.481427 -17.686593 53.813820 -32.923818 6.824742 -21.308325 0.467834 -2.662190 -23.100080 7.901446
-12.026474 85.016497 127.132985 35.224104 -11.305290 8.483183 0.942899 1.977128 9.807211 -0.080206 1.172940 4.281091 -0.080206 1.172940 4.281091 -0.068374 0.879195 3.210860 -5.384248 19.724639 -4.448773 -8.446336 0.361869 -6.448668 6.635800 2.018161 11.494057 -20.142977 -42.907235 44.679178 62.529153 -55.146979 39.236753 1.870544 -14.631855 16.576184 -17.575141 -14.784328 -3.755297 -33.424840 -55.086170 -56.153722 -106.919210 -12.772478 -38.315551 3.253754 12.429286 14.149004 4.132763 -20.523375 -20.965417 -3.660560 30.897039 -5.653535 -7.704800 1.555160 10.074966 -0.161553 0.349830 2.488571 6.569584 -1.564212 1.996358 -17.569633 53.665856 -32.383278 2.814268 -22.403670 -0.527928 -1.641522 -17.062874 10.685281
-11.726494 85.017411 127.199597 38.184847 -11.622001 9.363456 1.901131 1.476752 8.833119 0.534105 1.038487 3.984107 0.534105 1.038487 3.984107 0.393817 0.782387 2.987094 -6.732534 19.865414 -4.047055 -11.032431 0.646830 -5.307564 10.102496 -2.888196 9.262803 -18.619598 -49.310140 39.955213 65.355340 -56.775838 36.023510 2.160124 -15.068595 16.534283 -17.709708 -15.597025 -3.134769 -34.161618 -54.784235 -55.127084 -106.931551 -14.216644 -39.031739 3.486644 12.412645 13.957572 3.753578 -20.091927 -22.629620 -4.801787 32.295679 -6.582811 -9.161784 0.205755 10.342007 0.459361 0.833531 2.589656 6.922402 -3.437408 1.284859 -15.542170 53.313939 -29.692750 -0.409777 -23.204015 -1.380715 -0.161224 -10.537742 11.969596
-11.555900 84.908654 127.429240 40.979520 -11.812306 10.434511 2.300370 1.435988 7.751355 0.948664 0.998019 3.619920 0.948664 0.998019 3.619920 0.705597 0.754167 2.713330 -7.535750 19.561287 -3.994538 -12.516701 0.103168 -4.945487 14.167348 -7.883184 6.155878 -12.918567 -50.910514 32.510678 69.733387 -59.745886 29.760781 2.774568 -16.135824 16.256445 -16.561524 -16.410428 -3.092262 -34.987891 -54.966728 -54.311911 -107.095559 -14.978010 -39.886334 3.582144 12.553240 13.545980 2.509060 -20.524268 -24.319384 -6.587318 34.175470 -8.183517 -8.927196 -1.405860 10.918667 0.683348 1.160096 2.355496 6.623251 -4.942431 0.136430 -13.785546 52.144701 -27.335792 -1.643131 -23.744663 -1.834913 0.619974 -4.903157 9.672984
-11.612271 84.739822 127.921845 44.075145 -11.295174 11.373005 1.820929 0.927786 6.591446 1.034399 0.794935 3.349641 1.034399 0.794935 3.349641 0.771457 0.601894 2.510853 -7.885245 19.194241 -4.148109 -13.110938 -0.578070 -5.090756 18.224882 -10.527540 3.126087 -7.781647 -52.209423 25.399071 72.881118 -60.337354 25.451892 3.064122 -16.393169 15.782277 -14.173315 -16.804949 -4.114697 -35.076118 -55.494229 -54.666621 -106.902998 -15.087808 -41.140466 3.743193 12.692386 12.814909 1.130854 -21.780095 -25.753129 -7.912640 36.278812 -9.744248 -8.917390 -3.226328 11.742283 0.430687 1.433619 1.967583 6.202346 -6.753827 -0.950163 -13.470960 50.948211 -26.020065 -1.754958 -24.375137 -1.314501 0.878367 -1.015918 6.886177
-11.766959 84.748094 128.915674 46.794466 -10.911315 11.138523 1.657084 0.422757 6.199281 0.944733 0.565215 3.151335 0.944733 0.565215 3.151335 0.705652 0.428797 2.362615 -8.119156 19.131620 -3.866025 -13.630147 -0.665366 -4.497792 20.965396 -11.845076 1.224208 -3.126987 -52.547424 18.549098 73.247091 -59.860361 24.433641 2.688332 -16.326313 15.773440 -12.256896 -16.744617 -5.002946 -33.895295 -56.079172 -56.360924 -106.492246 -14.991881 -42.569600 4.050720 12.829421 11.922667 0.709066 -22.044596 -25.733067 -10.138801 38.048282 -11.470146 -9.167398 -4.388112 12.462300 0.004468 0.989998 1.696707 6.566910 -8.049255 -0.642780 -13.970367 51.281792 -25.078418 -2.101038 -24.870215 -0.810463 0.687206 0.347947 4.525531
-11.705760 84.849607 130.147524 48.959891 -11.523194 9.893517 1.779995 0.863885 6.367107 0.764457 0.425032 2.975214 0.764457 0.425032 2.975214 0.571287 0.322505 2.230872 -8.305504 19.222449 -3.138460 -14.201182 -0.427955 -3.119775 22.421655 -12.401682 0.497993 -1.035092 -52.582037 14.613251 74.286343 -58.392146 23.829595 2.326266 -16.028217 15.906619 -11.364963 -16.608078 -5.289229 -32.869263 -56.171160 -57.713885 -106.157958 -14.679199 -43.169023 4.375024 13.061693 11.396168 0.074251 -20.802157 -24.465402 -12.338232 39.340353 -12.929358 -9.563801 -5.359869 12.934685 -0.287692 0.358790 1.570425 6.313858 -7.993417 1.010918 -17.484966 51.703205 -26.994632 -0.969782 -25.646633 -0.098662 -0.190710 0.381152 2.610399
-11.515919 84.934336 131.164700 51.193107 -11.901829 8.577913 1.415139 1.037642 6.339607 0.608409 0.360007 2.801423 0.608409 0.360007 2.801423 0.454666 0.272801 2.100705 -8.630515 19.398111 -2.359993 -15.035644 -0.009238 -1.617508 22.747259 -13.135362 0.994128 -0.759599 -52.558007 13.054354 74.916327 -57.493221 24.273797 1.781135 -15.932118 16.370208 -11.304709 -16.340266 -5.266443 -32.875785 -56.033896 -57.619796 -106.161634 -14.334011 -42.955261 4.499505 13.130087 11.338119 -1.426389 -20.051355 -23.151800 -13.851118 40.516041 -13.865110 -10.215733 -6.702717 12.955858 -0.175085 0.152769 1.599648 5.303765 -7.197240 2.490074 -19.717525 50.733068 -27.377623 -0.955209 -26.554435 0.252255 -0.008150 0.827015 1.386480
-11.229942 84.995613 132.002341 52.634726 -12.336310 7.618506 1.091720 1.552517 6.315394 0.539794 0.409833 2.587887 0.539794 0.409833 2.587887 0.403117 0.309667 1.940546 -9.102218 19.487455 -1.795792 -16.070205 0.251483 -0.456947 22.301321 -13.952110 1.822162 -1.725836 -53.446678 13.927467 74.903381 -57.069430 25.292724 1.283322 -15.769878 16.803356 -11.559076 -16.312628 -5.029149 -32.664844 -56.002988 -57.206242 -106.209671 -14.516054 -42.596085 4.261184 13.160961 11.533076 -3.529918 -19.895885 -22.092159 -14.458748 41.689829 -14.467884 -10.448330 -7.756258 12.518944 0.271689 -0.191442 1.729365 4.028246 -5.742638 3.541736 -21.229185 49.041898 -27.880418 -0.356632 -27.598974 1.192565 0.233127 1.419729 0.188699
